<svg xmlns="http://www.w3.org/2000/svg" xmlns:xlink="http://www.w3.org/1999/xlink" contentStyleType="text/css" data-diagram-type="DESCRIPTION" height="280px" preserveAspectRatio="none" style="width:381px;height:280px;background:#FFFFFF;" version="1.1" viewBox="0 0 381 280" width="381px" zoomAndPan="magnify"><defs/><g><!--entity main--><g class="entity" data-entity="main" data-source-line="2" data-uid="ent0002" id="entity_main"><rect fill="#F1F1F1" height="49.0679" rx="2.5" ry="2.5" style="stroke:#181818;stroke-width:0.5;" width="73.2079" x="65.43" y="7"/><rect fill="#F1F1F1" height="10" style="stroke:#181818;stroke-width:0.5;" width="15" x="118.6379" y="12"/><rect fill="#F1F1F1" height="2" style="stroke:#181818;stroke-width:0.5;" width="4" x="116.6379" y="14"/><rect fill="#F1F1F1" height="2" style="stroke:#181818;stroke-width:0.5;" width="4" x="116.6379" y="18"/><text fill="#000000" font-family="sans-serif" font-size="14" lengthAdjust="spacing" textLength="33.2079" x="80.43" y="41.9659">main</text></g><!--entity api--><g class="entity" data-entity="api" data-source-line="3" data-uid="ent0003" id="entity_api"><rect fill="#F1F1F1" height="49.0679" rx="2.5" ry="2.5" style="stroke:#181818;stroke-width:0.5;" width="60.0759" x="7" y="116.06"/><rect fill="#F1F1F1" height="10" style="stroke:#181818;stroke-width:0.5;" width="15" x="47.0759" y="121.06"/><rect fill="#F1F1F1" height="2" style="stroke:#181818;stroke-width:0.5;" width="4" x="45.0759" y="123.06"/><rect fill="#F1F1F1" height="2" style="stroke:#181818;stroke-width:0.5;" width="4" x="45.0759" y="127.06"/><text fill="#000000" font-family="sans-serif" font-size="14" lengthAdjust="spacing" textLength="20.0759" x="22" y="151.0259">api</text></g><!--entity domain--><g class="entity" data-entity="domain" data-source-line="4" data-uid="ent0004" id="entity_domain"><rect fill="#F1F1F1" height="49.0679" rx="2.5" ry="2.5" style="stroke:#181818;stroke-width:0.5;" width="90.2878" x="133.89" y="225.13"/><rect fill="#F1F1F1" height="10" style="stroke:#181818;stroke-width:0.5;" width="15" x="204.1778" y="230.13"/><rect fill="#F1F1F1" height="2" style="stroke:#181818;stroke-width:0.5;" width="4" x="202.1778" y="232.13"/><rect fill="#F1F1F1" height="2" style="stroke:#181818;stroke-width:0.5;" width="4" x="202.1778" y="236.13"/><text fill="#000000" font-family="sans-serif" font-size="14" lengthAdjust="spacing" textLength="50.2878" x="148.89" y="260.0959">domain</text></g><!--entity repository--><g class="entity" data-entity="repository" data-source-line="5" data-uid="ent0005" id="entity_repository"><rect fill="#F1F1F1" height="49.0679" rx="2.5" ry="2.5" style="stroke:#181818;stroke-width:0.5;" width="107.5218" x="268.28" y="116.06"/><rect fill="#F1F1F1" height="10" style="stroke:#181818;stroke-width:0.5;" width="15" x="355.8018" y="121.06"/><rect fill="#F1F1F1" height="2" style="stroke:#181818;stroke-width:0.5;" width="4" x="353.8018" y="123.06"/><rect fill="#F1F1F1" height="2" style="stroke:#181818;stroke-width:0.5;" width="4" x="353.8018" y="127.06"/><text fill="#000000" font-family="sans-serif" font-size="14" lengthAdjust="spacing" textLength="67.5218" x="283.28" y="151.0259">repository</text></g><!--entity infrastructure--><g class="entity" data-entity="infrastructure" data-source-line="6" data-uid="ent0006" id="entity_infrastructure"><rect fill="#F1F1F1" height="49.0679" rx="2.5" ry="2.5" style="stroke:#181818;stroke-width:0.5;" width="131.0137" x="102.53" y="116.06"/><rect fill="#F1F1F1" height="10" style="stroke:#181818;stroke-width:0.5;" width="15" x="213.5437" y="121.06"/><rect fill="#F1F1F1" height="2" style="stroke:#181818;stroke-width:0.5;" width="4" x="211.5437" y="123.06"/><rect fill="#F1F1F1" height="2" style="stroke:#181818;stroke-width:0.5;" width="4" x="211.5437" y="127.06"/><text fill="#000000" font-family="sans-serif" font-size="14" lengthAdjust="spacing" textLength="91.0137" x="117.53" y="151.0259">infrastructure</text></g><!--link main to api--><g class="link" data-entity-1="main" data-entity-2="api" data-source-line="8" data-uid="lnk7" id="link_main_api"><path d="M87.45,56.56 C76.75,74.19 65.3835,92.911 54.6935,110.521" fill="none" id="main-to-api" style="stroke:#181818;stroke-width:1;stroke-dasharray:7,7;"/><polygon fill="#181818" points="51.58,115.65,59.6695,110.0322,54.1746,111.3759,52.8309,105.8809,51.58,115.65" style="stroke:#181818;stroke-width:1;"/></g><!--link main to infrastructure--><g class="link" data-entity-1="main" data-entity-2="infrastructure" data-source-line="9" data-uid="lnk8" id="link_main_infrastructure"><path d="M116.85,56.56 C127.72,74.19 139.2706,92.933 150.1306,110.543" fill="none" id="main-to-infrastructure" style="stroke:#181818;stroke-width:1;stroke-dasharray:7,7;"/><polygon fill="#181818" points="153.28,115.65,151.9605,105.8899,150.6555,111.3942,145.1512,110.0892,153.28,115.65" style="stroke:#181818;stroke-width:1;"/></g><!--link api to domain--><g class="link" data-entity-1="api" data-entity-2="domain" data-source-line="10" data-uid="lnk9" id="link_api_domain"><path d="M67.5,164.57 C91.13,182.39 118.9892,203.3878 142.8492,221.3778" fill="none" id="api-to-domain" style="stroke:#181818;stroke-width:1;stroke-dasharray:7,7;"/><polygon fill="#181818" points="147.64,224.99,142.8619,216.3778,143.6476,221.9798,138.0456,222.7656,147.64,224.99" style="stroke:#181818;stroke-width:1;"/></g><!--link repository to domain--><g class="link" data-entity-1="repository" data-entity-2="domain" data-source-line="11" data-uid="lnk10" id="link_repository_domain"><path d="M289.95,165.63 C266.4,183.26 239.3527,203.5036 215.8227,221.1236" fill="none" id="repository-to-domain" style="stroke:#181818;stroke-width:1;stroke-dasharray:7,7;"/><polygon fill="#181818" points="211.02,224.72,220.6216,222.5272,215.0222,221.723,215.8264,216.1236,211.02,224.72" style="stroke:#181818;stroke-width:1;"/></g><!--SRC=[IyxFBSZFIyqhKSXDpCpZIePp4mioaNWf-MZIHQa5-SMP9Vb5bKY2cNbfHOd59KMboIMbHQbSN20z2dfwTc33u1mqLK0vi33K2eJ1oA80]--></g></svg>