<svg xmlns="http://www.w3.org/2000/svg" xmlns:xlink="http://www.w3.org/1999/xlink" contentStyleType="text/css" data-diagram-type="DESCRIPTION" height="389px" preserveAspectRatio="none" style="width:276px;height:389px;background:#FFFFFF;" version="1.1" viewBox="0 0 276 389" width="276px" zoomAndPan="magnify"><defs/><g><!--entity main--><g class="entity" data-entity="main" data-source-line="2" data-uid="ent0002" id="entity_main"><rect fill="#F1F1F1" height="49.0679" rx="2.5" ry="2.5" style="stroke:#181818;stroke-width:0.5;" width="73.2079" x="65.43" y="7"/><rect fill="#F1F1F1" height="10" style="stroke:#181818;stroke-width:0.5;" width="15" x="118.6379" y="12"/><rect fill="#F1F1F1" height="2" style="stroke:#181818;stroke-width:0.5;" width="4" x="116.6379" y="14"/><rect fill="#F1F1F1" height="2" style="stroke:#181818;stroke-width:0.5;" width="4" x="116.6379" y="18"/><text fill="#000000" font-family="sans-serif" font-size="14" lengthAdjust="spacing" textLength="33.2079" x="80.43" y="41.9659">main</text></g><!--entity api--><g class="entity" data-entity="api" data-source-line="3" data-uid="ent0003" id="entity_api"><rect fill="#F1F1F1" height="49.0679" rx="2.5" ry="2.5" style="stroke:#181818;stroke-width:0.5;" width="60.0759" x="7" y="116.07"/><rect fill="#F1F1F1" height="10" style="stroke:#181818;stroke-width:0.5;" width="15" x="47.0759" y="121.07"/><rect fill="#F1F1F1" height="2" style="stroke:#181818;stroke-width:0.5;" width="4" x="45.0759" y="123.07"/><rect fill="#F1F1F1" height="2" style="stroke:#181818;stroke-width:0.5;" width="4" x="45.0759" y="127.07"/><text fill="#000000" font-family="sans-serif" font-size="14" lengthAdjust="spacing" textLength="20.0759" x="22" y="151.0359">api</text></g><!--entity domain--><g class="entity" data-entity="domain" data-source-line="4" data-uid="ent0004" id="entity_domain"><rect fill="#F1F1F1" height="49.0679" rx="2.5" ry="2.5" style="stroke:#181818;stroke-width:0.5;" width="90.2878" x="39.89" y="334.2"/><rect fill="#F1F1F1" height="10" style="stroke:#181818;stroke-width:0.5;" width="15" x="110.1778" y="339.2"/><rect fill="#F1F1F1" height="2" style="stroke:#181818;stroke-width:0.5;" width="4" x="108.1778" y="341.2"/><rect fill="#F1F1F1" height="2" style="stroke:#181818;stroke-width:0.5;" width="4" x="108.1778" y="345.2"/><text fill="#000000" font-family="sans-serif" font-size="14" lengthAdjust="spacing" textLength="50.2878" x="54.89" y="369.1659">domain</text></g><!--entity service--><g class="entity" data-entity="service" data-source-line="5" data-uid="ent0005" id="entity_service"><rect fill="#F1F1F1" height="49.0679" rx="2.5" ry="2.5" style="stroke:#181818;stroke-width:0.5;" width="85.7238" x="42.18" y="225.13"/><rect fill="#F1F1F1" height="10" style="stroke:#181818;stroke-width:0.5;" width="15" x="107.9038" y="230.13"/><rect fill="#F1F1F1" height="2" style="stroke:#181818;stroke-width:0.5;" width="4" x="105.9038" y="232.13"/><rect fill="#F1F1F1" height="2" style="stroke:#181818;stroke-width:0.5;" width="4" x="105.9038" y="236.13"/><text fill="#000000" font-family="sans-serif" font-size="14" lengthAdjust="spacing" textLength="45.7238" x="57.18" y="260.0959">service</text></g><!--entity repository--><g class="entity" data-entity="repository" data-source-line="6" data-uid="ent0006" id="entity_repository"><rect fill="#F1F1F1" height="49.0679" rx="2.5" ry="2.5" style="stroke:#181818;stroke-width:0.5;" width="107.5218" x="163.28" y="225.13"/><rect fill="#F1F1F1" height="10" style="stroke:#181818;stroke-width:0.5;" width="15" x="250.8018" y="230.13"/><rect fill="#F1F1F1" height="2" style="stroke:#181818;stroke-width:0.5;" width="4" x="248.8018" y="232.13"/><rect fill="#F1F1F1" height="2" style="stroke:#181818;stroke-width:0.5;" width="4" x="248.8018" y="236.13"/><text fill="#000000" font-family="sans-serif" font-size="14" lengthAdjust="spacing" textLength="67.5218" x="178.28" y="260.0959">repository</text></g><!--entity infrastructure--><g class="entity" data-entity="infrastructure" data-source-line="7" data-uid="ent0007" id="entity_infrastructure"><rect fill="#F1F1F1" height="49.0679" rx="2.5" ry="2.5" style="stroke:#181818;stroke-width:0.5;" width="131.0137" x="102.53" y="116.07"/><rect fill="#F1F1F1" height="10" style="stroke:#181818;stroke-width:0.5;" width="15" x="213.5437" y="121.07"/><rect fill="#F1F1F1" height="2" style="stroke:#181818;stroke-width:0.5;" width="4" x="211.5437" y="123.07"/><rect fill="#F1F1F1" height="2" style="stroke:#181818;stroke-width:0.5;" width="4" x="211.5437" y="127.07"/><text fill="#000000" font-family="sans-serif" font-size="14" lengthAdjust="spacing" textLength="91.0137" x="117.53" y="151.0359">infrastructure</text></g><!--link main to api--><g class="link" data-entity-1="main" data-entity-2="api" data-source-line="9" data-uid="lnk8" id="link_main_api"><path d="M87.45,56.56 C76.75,74.19 65.3835,92.911 54.6935,110.521" fill="none" id="main-to-api" style="stroke:#181818;stroke-width:1;stroke-dasharray:7,7;"/><polygon fill="#181818" points="51.58,115.65,59.6695,110.0322,54.1746,111.3759,52.8309,105.8809,51.58,115.65" style="stroke:#181818;stroke-width:1;"/></g><!--link main to infrastructure--><g class="link" data-entity-1="main" data-entity-2="infrastructure" data-source-line="10" data-uid="lnk9" id="link_main_infrastructure"><path d="M116.85,56.56 C127.72,74.19 139.2706,92.933 150.1306,110.543" fill="none" id="main-to-infrastructure" style="stroke:#181818;stroke-width:1;stroke-dasharray:7,7;"/><polygon fill="#181818" points="153.28,115.65,151.9605,105.8899,150.6555,111.3942,145.1512,110.0892,153.28,115.65" style="stroke:#181818;stroke-width:1;"/></g><!--link api to domain--><g class="link" data-entity-1="api" data-entity-2="domain" data-source-line="11" data-uid="lnk10" id="link_api_domain"><path d="M29.41,165.21 C21.92,192.22 13.21,237.46 25.04,274.2 C32.26,296.64 44.0528,313.6225 57.5928,329.1925" fill="none" id="api-to-domain" style="stroke:#181818;stroke-width:1;stroke-dasharray:7,7;"/><polygon fill="#181818" points="61.53,333.72,58.6425,324.3039,58.249,329.9471,52.6058,329.5535,61.53,333.72" style="stroke:#181818;stroke-width:1;"/></g><!--link repository to domain--><g class="link" data-entity-1="repository" data-entity-2="domain" data-source-line="12" data-uid="lnk11" id="link_repository_domain"><path d="M187.41,274.7 C165.68,292.33 140.9396,312.39 119.2196,330.01" fill="none" id="repository-to-domain" style="stroke:#181818;stroke-width:1;stroke-dasharray:7,7;"/><polygon fill="#181818" points="114.56,333.79,124.0694,331.2264,118.443,330.64,119.0294,325.0136,114.56,333.79" style="stroke:#181818;stroke-width:1;"/></g><!--link api to service--><g class="link" data-entity-1="api" data-entity-2="service" data-source-line="13" data-uid="lnk12" id="link_api_service"><path d="M47.81,165.63 C55.72,183.26 63.9567,201.6345 71.8467,219.2445" fill="none" id="api-to-service" style="stroke:#181818;stroke-width:1;stroke-dasharray:7,7;"/><polygon fill="#181818" points="74.3,224.72,74.2705,214.8712,72.2556,220.1571,66.9697,218.1422,74.3,224.72" style="stroke:#181818;stroke-width:1;"/></g><!--link service to domain--><g class="link" data-entity-1="service" data-entity-2="domain" data-source-line="14" data-uid="lnk13" id="link_service_domain"><path d="M85.04,274.7 C85.04,292.33 85.04,310.17 85.04,327.79" fill="none" id="service-to-domain" style="stroke:#181818;stroke-width:1;stroke-dasharray:7,7;"/><polygon fill="#181818" points="85.04,333.79,89.04,324.79,85.04,328.79,81.04,324.79,85.04,333.79" style="stroke:#181818;stroke-width:1;"/></g><!--SRC=[NOxH3O0W34J_cO896C5T2DQa7xIa51EtLmbWurTpxoxNIvmB4v3w795SMZ8MD6hddrr1JanWY43XYifo6OXqIAmgBMaJSEvjyI5ilNw9N-hnEXvFls9BPsWE6TT6RW00]--></g></svg>