<svg xmlns="http://www.w3.org/2000/svg" xmlns:xlink="http://www.w3.org/1999/xlink" contentStyleType="text/css" data-diagram-type="DESCRIPTION" height="433px" preserveAspectRatio="none" style="width:217px;height:433px;background:#FFFFFF;" version="1.1" viewBox="0 0 217 433" width="217px" zoomAndPan="magnify"><defs/><g><!--cluster Private Network--><g class="cluster" data-entity="Private Network" data-source-line="8" data-uid="ent0005" id="cluster_Private Network"><rect fill="none" height="212.14" rx="2.5" ry="2.5" style="stroke:#181818;stroke-width:1;" width="171" x="40.0959" y="202.06"/><rect fill="none" height="10" style="stroke:#181818;stroke-width:1;" width="15" x="191.0959" y="207.06"/><rect fill="none" height="2" style="stroke:#181818;stroke-width:1;" width="4" x="189.0959" y="209.06"/><rect fill="none" height="2" style="stroke:#181818;stroke-width:1;" width="4" x="189.0959" y="213.06"/><text fill="#000000" font-family="sans-serif" font-size="14" font-weight="bold" lengthAdjust="spacing" textLength="115.0796" x="68.0561" y="230.0259">Private Network</text></g><!--entity system--><g class="entity" data-entity="system" data-source-line="9" data-uid="ent0006" id="entity_system"><rect fill="#F1F1F1" height="49.0679" rx="2.5" ry="2.5" style="stroke:#181818;stroke-width:0.5;" width="86.5918" x="55.7959" y="240.06"/><rect fill="#F1F1F1" height="10" style="stroke:#181818;stroke-width:0.5;" width="15" x="122.3877" y="245.06"/><rect fill="#F1F1F1" height="2" style="stroke:#181818;stroke-width:0.5;" width="4" x="120.3877" y="247.06"/><rect fill="#F1F1F1" height="2" style="stroke:#181818;stroke-width:0.5;" width="4" x="120.3877" y="251.06"/><text fill="#000000" font-family="sans-serif" font-size="14" lengthAdjust="spacing" textLength="46.5918" x="70.7959" y="275.0259">system</text></g><!--entity service--><g class="entity" data-entity="service" data-source-line="11" data-uid="ent0007" id="entity_service"><rect fill="#F1F1F1" height="49.0679" rx="2.5" ry="2.5" style="stroke:#181818;stroke-width:0.5;" width="85.7238" x="109.2359" y="349.13"/><rect fill="#F1F1F1" height="10" style="stroke:#181818;stroke-width:0.5;" width="15" x="174.9597" y="354.13"/><rect fill="#F1F1F1" height="2" style="stroke:#181818;stroke-width:0.5;" width="4" x="172.9597" y="356.13"/><rect fill="#F1F1F1" height="2" style="stroke:#181818;stroke-width:0.5;" width="4" x="172.9597" y="360.13"/><text fill="#000000" font-family="sans-serif" font-size="14" lengthAdjust="spacing" textLength="45.7238" x="124.2359" y="384.0959">service</text></g><!--entity serviceAPI--><g class="entity" data-entity="serviceAPI" data-source-line="13" data-uid="ent0008" id="entity_serviceAPI"><ellipse cx="65.0959" cy="373.67" fill="#F1F1F1" rx="8" ry="8" style="stroke:#181818;stroke-width:0.5;"/><text fill="#000000" font-family="sans-serif" font-size="14" lengthAdjust="spacing" textLength="46.7038" x="34.989" y="405.6359">Service</text><text fill="#000000" font-family="sans-serif" font-size="14" lengthAdjust="spacing" textLength="60.2138" x="34.989" y="424.7039">HTTP API</text></g><!--entity browser--><g class="entity" data-entity="browser" data-source-line="2" data-uid="ent0002" id="entity_browser"><rect fill="#F1F1F1" height="49.0679" rx="2.5" ry="2.5" style="stroke:#181818;stroke-width:0.5;" width="94.2498" x="51.9759" y="7"/><rect fill="#F1F1F1" height="10" style="stroke:#181818;stroke-width:0.5;" width="15" x="126.2257" y="12"/><rect fill="#F1F1F1" height="2" style="stroke:#181818;stroke-width:0.5;" width="4" x="124.2257" y="14"/><rect fill="#F1F1F1" height="2" style="stroke:#181818;stroke-width:0.5;" width="4" x="124.2257" y="18"/><text fill="#000000" font-family="sans-serif" font-size="14" lengthAdjust="spacing" textLength="54.2498" x="66.9759" y="41.9659">browser</text></g><!--entity systemUI--><g class="entity" data-entity="systemUI" data-source-line="4" data-uid="ent0003" id="entity_systemUI"><ellipse cx="39.0959" cy="148.06" fill="#F1F1F1" rx="8" ry="8" style="stroke:#181818;stroke-width:0.5;"/><text fill="#000000" font-family="sans-serif" font-size="14" lengthAdjust="spacing" textLength="66.1918" x="6" y="180.0259">System UI</text></g><!--entity systemAPI--><g class="entity" data-entity="systemAPI" data-source-line="6" data-uid="ent0004" id="entity_systemAPI"><ellipse cx="159.0959" cy="148.06" fill="#F1F1F1" rx="8" ry="8" style="stroke:#181818;stroke-width:0.5;"/><text fill="#000000" font-family="sans-serif" font-size="14" lengthAdjust="spacing" textLength="73.3737" x="122.409" y="180.0259">System API</text></g><!--link serviceAPI to service--><g class="link" data-entity-1="serviceAPI" data-entity-2="service" data-source-line="16" data-uid="lnk9" id="link_serviceAPI_service"><path d="M74.2759,373.67 C85.8259,373.67 97.3759,373.67 108.9259,373.67" fill="none" id="serviceAPI-service" style="stroke:#181818;stroke-width:1;"/></g><!--link systemUI to system--><g class="link" data-entity-1="systemUI" data-entity-2="system" data-source-line="18" data-uid="lnk10" id="link_systemUI_system"><path d="M43.2159,156.94 C52.0659,173.82 73.1459,214.06 86.7359,240.01" fill="none" id="systemUI-system" style="stroke:#181818;stroke-width:1;"/></g><!--link systemAPI to system--><g class="link" data-entity-1="systemAPI" data-entity-2="system" data-source-line="19" data-uid="lnk11" id="link_systemAPI_system"><path d="M154.9759,156.94 C146.1259,173.82 125.0459,214.06 111.4559,240.01" fill="none" id="systemAPI-system" style="stroke:#181818;stroke-width:1;"/></g><!--link browser to systemAPI--><g class="link" data-entity-1="browser" data-entity-2="systemAPI" data-source-line="21" data-uid="lnk12" id="link_browser_systemAPI"><path d="M111.6759,56.54 C125.2859,82.52 141.5634,113.6029 150.3534,130.3729" fill="none" id="browser-to-systemAPI" style="stroke:#181818;stroke-width:1;"/><path d="M161.0575,132.5774 A9,9 0 0 0 146.0762 140.4299" fill="none" style="stroke:#181818;stroke-width:1.5;"/></g><!--link browser to systemUI--><g class="link" data-entity-1="browser" data-entity-2="systemUI" data-source-line="22" data-uid="lnk13" id="link_browser_systemUI"><path d="M86.5159,56.54 C72.9059,82.52 56.6283,113.6029 47.8383,130.3729" fill="none" id="browser-to-systemUI" style="stroke:#181818;stroke-width:1;"/><path d="M52.1155,140.4299 A9,9 0 0 0 37.1343 132.5774" fill="none" style="stroke:#181818;stroke-width:1.5;"/></g><!--link system to serviceAPI--><g class="link" data-entity-1="system" data-entity-2="serviceAPI" data-source-line="24" data-uid="lnk14" id="link_system_serviceAPI"><path d="M91.4659,289.63 C83.8659,313.55 75.6769,339.3704 70.6769,355.0904" fill="none" id="system-to-serviceAPI" style="stroke:#181818;stroke-width:1;"/><path d="M76.6383,364.25 A9,9 0 0 0 60.5195 359.1232" fill="none" style="stroke:#181818;stroke-width:1.5;"/></g><!--SRC=[RP312i8m38RlUOhGavS-X3TtaOBRpKij4OgibRHioF3TtOnRYzfJ_e-_-PEusDzZe93nmd5Cn00-PEAhTOJgz4YPUkmQXJPXUgkk-MVPczepAm2tjLQ6_M0puP7o6FccS0ASNt78D_Ycn8Dt9BZE57uEXxOr9Lhealq4A0frQRIkW5glcTl45OFFCMQqgrRwfSinf19OHdW1]--></g></svg>