<svg xmlns="http://www.w3.org/2000/svg" xmlns:xlink="http://www.w3.org/1999/xlink" contentStyleType="text/css" data-diagram-type="SEQUENCE" height="475px" preserveAspectRatio="none" style="width:541px;height:475px;background:#FFFFFF;" version="1.1" viewBox="0 0 541 475" width="541px" zoomAndPan="magnify"><defs/><g><rect fill="#DDDDDD" height="463.49" style="stroke:#181818;stroke-width:0.5;" width="215.6399" x="233.5532" y="6"/><text fill="#000000" font-family="sans-serif" font-size="13" font-weight="bold" lengthAdjust="spacing" textLength="106.8601" x="287.9431" y="19.897">Private Network</text><g><title>browser</title><rect fill="#FFFFFF" height="260.6481" style="stroke:#181818;stroke-width:1;" width="10" x="111.628" y="117.7739"/></g><g><title>system</title><rect fill="#FFFFFF" height="157.5301" style="stroke:#181818;stroke-width:1;" width="10" x="262.8491" y="211.892"/></g><g><title>service</title><rect fill="#FFFFFF" height="76.412" style="stroke:#181818;stroke-width:1;" width="10" x="410.3312" y="261.304"/></g><g><title>visitor</title><rect fill="#000000" fill-opacity="0.00000" height="303.3541" width="8" x="24.1739" y="84.0679"/><line style="stroke:#181818;stroke-width:0.5;stroke-dasharray:5,5;" x1="28" x2="28" y1="84.0679" y2="387.4221"/></g><g><title>browser</title><rect fill="#000000" fill-opacity="0.00000" height="303.3541" width="8" x="112.628" y="84.0679"/><line style="stroke:#181818;stroke-width:0.5;stroke-dasharray:5,5;" x1="116.5031" x2="116.5031" y1="84.0679" y2="387.4221"/></g><g><title>system</title><rect fill="#000000" fill-opacity="0.00000" height="303.3541" width="8" x="263.8491" y="84.0679"/><line style="stroke:#181818;stroke-width:0.5;stroke-dasharray:5,5;" x1="267.5532" x2="267.5532" y1="84.0679" y2="387.4221"/></g><g><title>service</title><rect fill="#000000" fill-opacity="0.00000" height="303.3541" width="8" x="411.3312" y="84.0679"/><line style="stroke:#181818;stroke-width:0.5;stroke-dasharray:5,5;" x1="414.4693" x2="414.4693" y1="84.0679" y2="387.4221"/></g><g class="participant participant-head" data-participant="visitor"><text fill="#000000" font-family="sans-serif" font-size="14" lengthAdjust="spacing" textLength="40.3479" x="5" y="79.9659">visitor</text><ellipse cx="28.1739" cy="13.5" fill="#E2E2F0" rx="8" ry="8" style="stroke:#181818;stroke-width:0.5;"/><path d="M28.1739,21.5 L28.1739,48.5 M15.1739,29.5 L41.1739,29.5 M28.1739,48.5 L15.1739,63.5 M28.1739,48.5 L41.1739,63.5" fill="none" style="stroke:#181818;stroke-width:0.5;"/></g><g class="participant participant-tail" data-participant="visitor"><text fill="#000000" font-family="sans-serif" font-size="14" lengthAdjust="spacing" textLength="40.3479" x="5" y="401.388">visitor</text><ellipse cx="28.1739" cy="413.99" fill="#E2E2F0" rx="8" ry="8" style="stroke:#181818;stroke-width:0.5;"/><path d="M28.1739,421.99 L28.1739,448.99 M15.1739,429.99 L41.1739,429.99 M28.1739,448.99 L15.1739,463.99 M28.1739,448.99 L41.1739,463.99" fill="none" style="stroke:#181818;stroke-width:0.5;"/></g><g class="participant participant-head" data-participant="browser"><rect fill="#E2E2F0" height="33.0679" rx="2.5" ry="2.5" style="stroke:#181818;stroke-width:0.5;" width="68.2498" x="82.5031" y="50"/><text fill="#000000" font-family="sans-serif" font-size="14" lengthAdjust="spacing" textLength="54.2498" x="89.5031" y="71.9659">browser</text></g><g class="participant participant-tail" data-participant="browser"><rect fill="#E2E2F0" height="33.0679" rx="2.5" ry="2.5" style="stroke:#181818;stroke-width:0.5;" width="68.2498" x="82.5031" y="386.4221"/><text fill="#000000" font-family="sans-serif" font-size="14" lengthAdjust="spacing" textLength="54.2498" x="89.5031" y="408.388">browser</text></g><g class="participant participant-head" data-participant="system"><rect fill="#E2E2F0" height="33.0679" rx="2.5" ry="2.5" style="stroke:#181818;stroke-width:0.5;" width="60.5918" x="237.5532" y="50"/><text fill="#000000" font-family="sans-serif" font-size="14" lengthAdjust="spacing" textLength="46.5918" x="244.5532" y="71.9659">system</text></g><g class="participant participant-tail" data-participant="system"><rect fill="#E2E2F0" height="33.0679" rx="2.5" ry="2.5" style="stroke:#181818;stroke-width:0.5;" width="60.5918" x="237.5532" y="386.4221"/><text fill="#000000" font-family="sans-serif" font-size="14" lengthAdjust="spacing" textLength="46.5918" x="244.5532" y="408.388">system</text></g><g class="participant participant-head" data-participant="service"><rect fill="#E2E2F0" height="33.0679" rx="2.5" ry="2.5" style="stroke:#181818;stroke-width:0.5;" width="59.7238" x="385.4693" y="50"/><text fill="#000000" font-family="sans-serif" font-size="14" lengthAdjust="spacing" textLength="45.7238" x="392.4693" y="71.9659">service</text></g><g class="participant participant-tail" data-participant="service"><rect fill="#E2E2F0" height="33.0679" rx="2.5" ry="2.5" style="stroke:#181818;stroke-width:0.5;" width="59.7238" x="385.4693" y="386.4221"/><text fill="#000000" font-family="sans-serif" font-size="14" lengthAdjust="spacing" textLength="45.7238" x="392.4693" y="408.388">service</text></g><g><title>browser</title><rect fill="#FFFFFF" height="260.6481" style="stroke:#181818;stroke-width:1;" width="10" x="111.628" y="117.7739"/></g><g><title>system</title><rect fill="#FFFFFF" height="157.5301" style="stroke:#181818;stroke-width:1;" width="10" x="262.8491" y="211.892"/></g><g><title>service</title><rect fill="#FFFFFF" height="76.412" style="stroke:#181818;stroke-width:1;" width="10" x="410.3312" y="261.304"/></g><g class="message" data-participant-1="visitor" data-participant-2="browser"><polygon fill="#181818" points="99.628,113.7739,109.628,117.7739,99.628,121.7739,103.628,117.7739" style="stroke:#181818;stroke-width:1;"/><line style="stroke:#181818;stroke-width:1;" x1="28.1739" x2="105.628" y1="117.7739" y2="117.7739"/><text fill="#000000" font-family="sans-serif" font-size="13" lengthAdjust="spacing" textLength="64.4541" x="35.1739" y="111.9649">visits page</text></g><g class="message" data-participant-1="browser" data-participant-2="browser"><line style="stroke:#181818;stroke-width:1;" x1="121.628" x2="163.628" y1="167.186" y2="167.186"/><line style="stroke:#181818;stroke-width:1;" x1="163.628" x2="163.628" y1="167.186" y2="180.186"/><line style="stroke:#181818;stroke-width:1;" x1="122.628" x2="163.628" y1="180.186" y2="180.186"/><polygon fill="#181818" points="132.628,176.186,122.628,180.186,132.628,184.186,128.628,180.186" style="stroke:#181818;stroke-width:1;"/><text fill="#000000" font-family="sans-serif" font-size="13" lengthAdjust="spacing" textLength="113.5941" x="128.628" y="143.6709">generating unique</text><text fill="#000000" font-family="sans-serif" font-size="13" lengthAdjust="spacing" textLength="117.2211" x="128.628" y="161.377">identifier for visitor</text></g><g class="message" data-participant-1="browser" data-participant-2="system"><polygon fill="#181818" points="250.8491,207.892,260.8491,211.892,250.8491,215.892,254.8491,211.892" style="stroke:#181818;stroke-width:1;"/><line style="stroke:#181818;stroke-width:1;" x1="121.628" x2="256.8491" y1="211.892" y2="211.892"/><text fill="#000000" font-family="sans-serif" font-size="13" lengthAdjust="spacing" textLength="85.6701" x="128.628" y="206.083">send an event</text></g><g class="message" data-participant-1="system" data-participant-2="service"><polygon fill="#181818" points="398.3312,257.304,408.3312,261.304,398.3312,265.304,402.3312,261.304" style="stroke:#181818;stroke-width:1;"/><line style="stroke:#181818;stroke-width:1;" x1="272.8491" x2="404.3312" y1="261.304" y2="261.304"/><text fill="#000000" font-family="sans-serif" font-size="13" lengthAdjust="spacing" textLength="118.4821" x="279.8491" y="237.789">call user navigation</text><text fill="#000000" font-family="sans-serif" font-size="13" lengthAdjust="spacing" textLength="115.5701" x="279.8491" y="255.495">ingestion endpoint</text></g><g class="message" data-participant-1="service" data-participant-2="service"><line style="stroke:#181818;stroke-width:1;" x1="420.3312" x2="462.3312" y1="293.01" y2="293.01"/><line style="stroke:#181818;stroke-width:1;" x1="462.3312" x2="462.3312" y1="293.01" y2="306.01"/><line style="stroke:#181818;stroke-width:1;" x1="421.3312" x2="462.3312" y1="306.01" y2="306.01"/><polygon fill="#181818" points="431.3312,302.01,421.3312,306.01,431.3312,310.01,427.3312,306.01" style="stroke:#181818;stroke-width:1;"/><text fill="#000000" font-family="sans-serif" font-size="13" lengthAdjust="spacing" textLength="107.3541" x="427.3312" y="287.201">store information</text></g><g class="message" data-participant-1="service" data-participant-2="system"><polygon fill="#181818" points="283.8491,333.716,273.8491,337.716,283.8491,341.716,279.8491,337.716" style="stroke:#181818;stroke-width:1;"/><line style="stroke:#181818;stroke-width:1;stroke-dasharray:2,2;" x1="277.8491" x2="414.3312" y1="337.716" y2="337.716"/><text fill="#000000" font-family="sans-serif" font-size="13" lengthAdjust="spacing" textLength="46.527" x="289.8491" y="331.907">success</text></g><g class="message" data-participant-1="system" data-participant-2="browser"><polygon fill="#181818" points="132.628,365.4221,122.628,369.4221,132.628,373.4221,128.628,369.4221" style="stroke:#181818;stroke-width:1;"/><line style="stroke:#181818;stroke-width:1;stroke-dasharray:2,2;" x1="126.628" x2="266.8491" y1="369.4221" y2="369.4221"/><text fill="#000000" font-family="sans-serif" font-size="13" lengthAdjust="spacing" textLength="46.527" x="138.628" y="363.6131">success</text></g><!--SRC=[RL1BRW8n3Dtx51PxBZ2B7g7g0TYOZ8ciWZEDCw6zVGq98YF8vaNH-uP2IHchc3Z2Ghb8a8Mqu36dgt46EAPVt7rbgLGOFxbSK_xU0VePwVPdXI-lpvoh10RM6Tq8e4VX_kEHCBLuSrrae51QqYE_uqOGMJbJ4OsugloiV52PMOkSn9cdOT6WRWqdh-HTI96hAvvvVK03l0jQzma3dS-utcoKgaGFJkg96jbkLtJ39Sd6hC_kk74pxyKewZKlTwidQsovXi1cCFEhQQku7t_a7RqDWdy0]--></g></svg>